<mxfile host="app.diagrams.net" modified="2024-03-14T08:56:10.291Z" agent="Mozilla/5.0 (Macintosh; Intel Mac OS X 10_15_7) AppleWebKit/537.36 (KHTML, like Gecko) Chrome/122.0.0.0 Safari/537.36" version="24.0.6" etag="xLpJGbb5vS6xMUg_9Vs1" type="github">
  <diagram name="第 1 页" id="1tOMRcfb03r_TatQWsgq">
    <mxGraphModel>
      <root>
        <mxCell id="0" />
        <mxCell id="1" parent="0" />
      </root>
    </mxGraphModel>
  </diagram>
</mxfile>
